<?xml version="1.0" encoding="utf-8"?>
<!-- Generator: Adobe Illustrator 19.1.1, SVG Export Plug-In . SVG Version: 6.00 Build 0)  -->
<svg version="1.1" id="Calque_1" xmlns="http://www.w3.org/2000/svg" xmlns:xlink="http://www.w3.org/1999/xlink" x="0px" y="0px"
	 viewBox="0 0 880 660" enable-background="new 0 0 880 660" xml:space="preserve">
<g>
	<path fill="#FFFFFF" d="M434.373,414.316c-6.463,7.151-11.563,13.016-16.913,18.644c-4.667,4.91-9.717,9.455-14.416,14.335
		c-6.094,6.328-12.006,12.832-18.001,19.255c-3.953,4.234-7.852,8.522-11.885,12.679c-16.799,17.314-33.623,34.603-50.47,51.87
		c-13.052,13.378-26.203,26.66-39.213,40.079c-9.783,10.091-19.467,20.279-29.09,30.523c-8.379,8.919-16.512,18.07-24.941,26.941
		c-5.702,6.001-11.745,11.678-17.593,17.541c-1.05,1.053-1.98,2.251-2.825,3.479c-6.525,9.477-11.277,9.661-21.023,3.406
		c-12.808-8.22-23.148-19.514-32.882-30.999c-4.774-5.633-6.802-13.592-10.293-20.964
		c79.551-78.358,159.262-156.873,239.057-235.471c-47.972-49.224-96.458-98.975-145.388-149.182
		c-13.443,15.86-27.256,31.559-40.382,47.812c-13.131,16.259-25.575,33.072-39.167,50.743c-28.817-24.547-58.111-49.5-87.737-74.736
		c13.001-15.627,25.863-30.992,38.607-46.454c5.073-6.156,9.584-12.794,14.881-18.741c8.247-9.259,17.012-18.053,25.434-27.158
		c8.993-9.722,17.7-19.711,26.808-29.323c6.038-6.372,12.65-12.196,18.847-18.423c8.633-8.674,16.822-17.81,25.745-26.167
		c9.999-9.366,20.724-17.953,30.914-27.122c9.95-8.954,19.507-18.345,29.459-27.296c6.555-5.896,13.419-11.462,20.369-16.888
		c1.044-0.815,4.13-0.779,4.895,0.084c8.699,9.808,17.001,19.967,25.68,29.794c5.704,6.458,12.007,12.384,17.744,18.814
		c4.615,5.173,8.656,10.854,13.183,16.11c4.97,5.77,10.206,11.312,15.889,17.574c-3.565,3.26-7.104,6.621-10.779,9.827
		c-4.999,4.361-10.133,8.565-15.152,12.903c-13.852,11.973-27.769,23.873-41.475,36.011c-9.786,8.667-19.226,17.723-28.927,26.488
		c-2.354,2.127-2.216,3.606,0.015,5.68c7.02,6.527,13.905,13.199,20.843,19.814c6.217,5.927,12.437,11.85,18.652,17.778
		c7.178,6.847,14.293,13.761,21.541,20.533c9.552,8.926,19.36,17.582,28.785,26.639c18.24,17.529,36.278,35.267,54.424,52.894
		c5.145,4.998,6.389,4.977,11.378-0.121c7.166-7.322,14.302-14.674,21.412-22.05c4.931-5.116,9.634-10.463,14.727-15.41
		c9.737-9.457,19.755-18.626,29.506-28.069c4.625-4.479,8.741-9.484,13.375-13.953c9.888-9.535,19.961-18.877,29.963-28.293
		c4.333-4.079,8.769-8.053,12.995-12.238c4.946-4.898,9.566-10.133,14.619-14.912c2.793-2.642,3.735-4.669,0.768-7.852
		c-6.974-7.481-13.462-15.427-20.612-22.73c-9.612-9.818-19.575-19.299-29.557-28.745c-5.402-5.112-11.361-9.641-16.7-14.814
		c-6.16-5.969-11.914-12.358-18.449-19.199c12.755-12.486,25.017-24.514,37.307-36.512c13.289-12.974,26.617-25.908,39.895-38.893
		c1.696-1.659,3.12-3.017,5.39-0.69c11.922,12.222,23.787,24.505,35.907,36.53c16.373,16.244,32.959,32.273,49.627,48.563
		c4.515-4.252,8.761-8.252,13.699-12.903c3.201,3.168,6.253,6.332,9.461,9.331c5.561,5.199,11.24,10.271,16.83,15.44
		c4.991,4.614,10.121,9.101,14.817,14.002c2.883,3.009,0.096,5.528-1.898,7.69c-3.014,3.27-6.209,6.374-9.815,10.045
		c5.432,5.262,10.425,9.944,15.246,14.797c11.074,11.149,21.583,22.738,29.084,36.747c7.062,13.191,14.568,26.148,21.44,39.436
		c4.7,9.088,8.584,18.596,12.97,27.851c1.208,2.55,2.994,4.819,4.364,7.301c5.463,9.895,11.011,19.747,16.252,29.759
		c5.28,10.087,10.233,20.345,15.904,31.676c-2.808-1.492-4.449-2.458-6.166-3.261c-19.771-9.242-39.535-18.502-59.34-27.671
		c-16.48-7.629-32.973-15.23-49.535-22.678c-12.725-5.722-25.817-10.691-38.245-16.984c-5.882-2.979-10.732-8.114-15.797-12.56
		c-5.845-5.131-11.427-10.564-17.094-15.896c-2.994-2.817-5.928-5.698-9.981-9.601c-3.614,4.066-7.356,8.234-11.053,12.443
		c-5.558,6.327-10.841,12.915-16.666,18.984c-22.559,23.503-45.259,46.87-67.963,70.233c-9.953,10.242-20.054,20.339-30.06,30.53
		c-3.709,3.778-7.361,7.614-10.994,11.467c-3.097,3.285-2.69,7.213,0.729,9.997c5.237,4.265,10.585,8.435,15.481,13.072
		c9.73,9.218,19.103,18.811,28.785,28.082c5.252,5.029,10.959,9.58,16.231,14.589c5.52,5.244,10.652,10.895,16.16,16.152
		c5.747,5.486,11.792,10.657,17.607,16.072c4.969,4.628,9.825,9.378,14.68,14.126c6.476,6.335,12.914,12.71,19.346,19.09
		c4.453,4.417,8.758,8.99,13.325,13.285c12.473,11.732,25.067,23.337,37.58,35.027c7.227,6.752,14.4,13.561,21.579,20.364
		c11.592,10.985,23.169,21.985,34.751,32.981c3.352,3.182,6.508,6.609,10.104,9.484c3.349,2.677,1.85,5.434,0.658,8.056
		c-6.11,13.449-15.37,24.516-26.595,33.944c-6.752,5.671-13.801,10.868-22.261,14.038c-4.856,1.819-7.839,2.76-12.358-2.067
		c-18.414-19.672-37.753-38.474-56.564-57.779c-15.746-16.16-31.064-32.74-46.888-48.822
		c-12.434-12.637-25.476-24.673-38.013-37.212c-8.651-8.652-16.769-17.836-25.365-26.546c-9.777-9.907-19.972-19.403-29.707-29.35
		c-9.841-10.054-19.379-20.407-28.973-30.7C441.409,422.576,438.141,418.628,434.373,414.316z"/>
</g>
</svg>
